<svg width="48" height="48" viewBox="0 0 48 48" fill="none" xmlns="http://www.w3.org/2000/svg">
  <!-- Concept 3: Tee Time Spinner - Dynamic circular segments -->

  <!-- Segment 1 (12 o'clock) - Full opacity -->
  <path d="M 24 4 L 28.3 5.7 L 24 8 Z" fill="#16a34a" opacity="1.0"/>

  <!-- Segment 2 (1 o'clock) -->
  <path d="M 28.3 5.7 L 32.9 9 L 28 12 Z" fill="#16a34a" opacity="0.95"/>

  <!-- Segment 3 (2 o'clock) -->
  <path d="M 32.9 9 L 36.5 13.5 L 30.5 16 Z" fill="#16a34a" opacity="0.85"/>

  <!-- Segment 4 (3 o'clock) -->
  <path d="M 36.5 13.5 L 39 18.3 L 32 20 Z" fill="#16a34a" opacity="0.75"/>

  <!-- Segment 5 (4 o'clock) -->
  <path d="M 39 18.3 L 40 24 L 32 24 Z" fill="#16a34a" opacity="0.65"/>

  <!-- Segment 6 (5 o'clock) -->
  <path d="M 40 24 L 39 29.7 L 32 28 Z" fill="#16a34a" opacity="0.55"/>

  <!-- Segment 7 (6 o'clock) -->
  <path d="M 39 29.7 L 36.5 34.5 L 30.5 32 Z" fill="#16a34a" opacity="0.45"/>

  <!-- Segment 8 (7 o'clock) -->
  <path d="M 36.5 34.5 L 32.9 39 L 28 36 Z" fill="#16a34a" opacity="0.35"/>

  <!-- Segment 9 (8 o'clock) -->
  <path d="M 32.9 39 L 28.3 42.3 L 24 40 Z" fill="#16a34a" opacity="0.30"/>

  <!-- Segment 10 (9 o'clock) -->
  <path d="M 28.3 42.3 L 24 44 L 20 40 Z" fill="#16a34a" opacity="0.25"/>

  <!-- Segment 11 (10 o'clock) -->
  <path d="M 24 44 L 19.7 42.3 L 20 36 Z" fill="#16a34a" opacity="0.40"/>

  <!-- Segment 12 (11 o'clock) -->
  <path d="M 19.7 42.3 L 15.1 39 L 20 32 Z" fill="#16a34a" opacity="0.60"/>

  <!-- More segments completing the circle -->
  <path d="M 15.1 39 L 11.5 34.5 L 17.5 28 Z" fill="#16a34a" opacity="0.70"/>
  <path d="M 11.5 34.5 L 9 29.7 L 16 24 Z" fill="#16a34a" opacity="0.80"/>
  <path d="M 9 29.7 L 8 24 L 16 24 Z" fill="#16a34a" opacity="0.85"/>
  <path d="M 8 24 L 9 18.3 L 16 20 Z" fill="#16a34a" opacity="0.90"/>
  <path d="M 9 18.3 L 11.5 13.5 L 17.5 16 Z" fill="#16a34a" opacity="0.92"/>
  <path d="M 11.5 13.5 L 15.1 9 L 20 12 Z" fill="#16a34a" opacity="0.95"/>
  <path d="M 15.1 9 L 19.7 5.7 L 20 8 Z" fill="#16a34a" opacity="0.97"/>

  <!-- Center circle (golf ball) -->
  <circle cx="24" cy="24" r="6" fill="white"/>
  <circle cx="24" cy="24" r="5" fill="#16a34a"/>
  <circle cx="24" cy="22" r="0.8" fill="white" opacity="0.4"/>
  <circle cx="22.5" cy="24" r="0.8" fill="white" opacity="0.4"/>
  <circle cx="25.5" cy="24" r="0.8" fill="white" opacity="0.4"/>
</svg>
